<mxfile host="Electron" agent="Mozilla/5.0 (X11; Linux x86_64) AppleWebKit/537.36 (KHTML, like Gecko) draw.io/28.0.6 Chrome/138.0.7204.100 Electron/37.2.3 Safari/537.36" version="28.0.6">
  <diagram name="Page-1" id="5-EtWSU6YtfRYnp5921K">
    <mxGraphModel dx="1856" dy="1924" grid="1" gridSize="10" guides="1" tooltips="1" connect="1" arrows="1" fold="1" page="1" pageScale="1" pageWidth="850" pageHeight="1100" math="0" shadow="0">
      <root>
        <mxCell id="0" />
        <mxCell id="1" parent="0" />
        <mxCell id="HiLvJJbdrpGc3KtGlOCQ-3" value="" style="image;aspect=fixed;html=1;points=[];align=center;fontSize=12;image=img/lib/azure2/ai_machine_learning/Computer_Vision.svg;" vertex="1" parent="1">
          <mxGeometry x="68" width="68" height="68" as="geometry" />
        </mxCell>
        <mxCell id="HiLvJJbdrpGc3KtGlOCQ-4" value="" style="image;aspect=fixed;html=1;points=[];align=center;fontSize=12;image=img/lib/azure2/ai_machine_learning/Face_APIs.svg;" vertex="1" parent="1">
          <mxGeometry width="68" height="68" as="geometry" />
        </mxCell>
        <mxCell id="HiLvJJbdrpGc3KtGlOCQ-5" value="" style="image;aspect=fixed;html=1;points=[];align=center;fontSize=12;image=img/lib/azure2/app_services/API_Management_Services.svg;" vertex="1" parent="1">
          <mxGeometry x="-220" y="240" width="162.5" height="150" as="geometry" />
        </mxCell>
        <mxCell id="HiLvJJbdrpGc3KtGlOCQ-6" value="" style="image;aspect=fixed;html=1;points=[];align=center;fontSize=12;image=img/lib/azure2/iot/IoT_Edge.svg;" vertex="1" parent="1">
          <mxGeometry x="-479.56" y="390" width="160" height="160" as="geometry" />
        </mxCell>
        <mxCell id="HiLvJJbdrpGc3KtGlOCQ-8" value="" style="image;aspect=fixed;html=1;points=[];align=center;fontSize=12;image=img/lib/azure2/app_services/Notification_Hubs.svg;" vertex="1" parent="1">
          <mxGeometry x="-691.56" y="390" width="67" height="56.00000000000001" as="geometry" />
        </mxCell>
        <mxCell id="HiLvJJbdrpGc3KtGlOCQ-9" value="" style="image;aspect=fixed;html=1;points=[];align=center;fontSize=12;image=img/lib/azure2/storage/Data_Share_Invitations.svg;" vertex="1" parent="1">
          <mxGeometry x="-409.99999999999994" y="130" width="68" height="44.800000000000004" as="geometry" />
        </mxCell>
        <mxCell id="HiLvJJbdrpGc3KtGlOCQ-10" value="" style="image;aspect=fixed;html=1;points=[];align=center;fontSize=12;image=img/lib/azure2/other/Instance_Pools.svg;" vertex="1" parent="1">
          <mxGeometry x="490" y="-160" width="76.17" height="75" as="geometry" />
        </mxCell>
        <mxCell id="HiLvJJbdrpGc3KtGlOCQ-13" value="" style="image;aspect=fixed;html=1;points=[];align=center;fontSize=12;image=img/lib/azure2/general/Templates.svg;" vertex="1" parent="1">
          <mxGeometry x="10" y="-310" width="58.46" height="71" as="geometry" />
        </mxCell>
        <mxCell id="HiLvJJbdrpGc3KtGlOCQ-14" value="" style="image;aspect=fixed;html=1;points=[];align=center;fontSize=12;image=img/lib/azure2/storage/Azure_Stack_Edge.svg;" vertex="1" parent="1">
          <mxGeometry x="-370" y="-390" width="240.83" height="170" as="geometry" />
        </mxCell>
        <mxCell id="HiLvJJbdrpGc3KtGlOCQ-15" value="" style="image;aspect=fixed;html=1;points=[];align=center;fontSize=12;image=img/lib/azure2/intune/Device_Compliance.svg;" vertex="1" parent="1">
          <mxGeometry x="440" y="162" width="62" height="68" as="geometry" />
        </mxCell>
        <mxCell id="HiLvJJbdrpGc3KtGlOCQ-16" value="" style="image;aspect=fixed;html=1;points=[];align=center;fontSize=12;image=img/lib/azure2/intune/Devices.svg;" vertex="1" parent="1">
          <mxGeometry x="540" y="162" width="68" height="60" as="geometry" />
        </mxCell>
        <mxCell id="HiLvJJbdrpGc3KtGlOCQ-19" value="" style="shape=mxgraph.cisco.servers.sip_proxy_server;html=1;pointerEvents=1;dashed=0;fillColor=#036897;strokeColor=#ffffff;strokeWidth=2;verticalLabelPosition=bottom;verticalAlign=top;align=center;outlineConnect=0;" vertex="1" parent="1">
          <mxGeometry x="136" y="409.99999999999994" width="110" height="140" as="geometry" />
        </mxCell>
        <mxCell id="HiLvJJbdrpGc3KtGlOCQ-20" value="" style="sketch=0;pointerEvents=1;shadow=0;dashed=0;html=1;strokeColor=none;fillColor=#505050;labelPosition=center;verticalLabelPosition=bottom;verticalAlign=top;outlineConnect=0;align=center;shape=mxgraph.office.communications.sip_uri_um_dial_plan;" vertex="1" parent="1">
          <mxGeometry x="170" y="-160" width="110" height="90" as="geometry" />
        </mxCell>
        <mxCell id="HiLvJJbdrpGc3KtGlOCQ-22" style="edgeStyle=orthogonalEdgeStyle;rounded=0;orthogonalLoop=1;jettySize=auto;html=1;exitX=0;exitY=1;exitDx=0;exitDy=0;exitPerimeter=0;entryX=-0.013;entryY=0.857;entryDx=0;entryDy=0;entryPerimeter=0;" edge="1" parent="1" source="HiLvJJbdrpGc3KtGlOCQ-19" target="HiLvJJbdrpGc3KtGlOCQ-19">
          <mxGeometry relative="1" as="geometry" />
        </mxCell>
        <mxCell id="HiLvJJbdrpGc3KtGlOCQ-25" value="" style="image;aspect=fixed;html=1;points=[];align=center;fontSize=12;image=img/lib/azure2/general/Templates.svg;" vertex="1" parent="1">
          <mxGeometry x="-377.20000000000005" y="-100" width="57.64" height="70" as="geometry" />
        </mxCell>
        <mxCell id="HiLvJJbdrpGc3KtGlOCQ-26" value="" style="image;aspect=fixed;html=1;points=[];align=center;fontSize=12;image=img/lib/azure2/intune/Device_Compliance.svg;" vertex="1" parent="1">
          <mxGeometry x="300" y="162" width="62" height="68" as="geometry" />
        </mxCell>
        <mxCell id="HiLvJJbdrpGc3KtGlOCQ-27" value="" style="image;aspect=fixed;html=1;points=[];align=center;fontSize=12;image=img/lib/azure2/ai_machine_learning/Content_Moderators.svg;" vertex="1" parent="1">
          <mxGeometry x="328.75" y="-399" width="173.25" height="160" as="geometry" />
        </mxCell>
        <mxCell id="HiLvJJbdrpGc3KtGlOCQ-28" value="" style="outlineConnect=0;dashed=0;verticalLabelPosition=bottom;verticalAlign=top;align=center;html=1;shape=mxgraph.aws3.android;fillColor=#FFD44F;gradientColor=none;" vertex="1" parent="1">
          <mxGeometry x="359" y="-153" width="73.5" height="84" as="geometry" />
        </mxCell>
        <mxCell id="HiLvJJbdrpGc3KtGlOCQ-30" value="" style="image;aspect=fixed;html=1;points=[];align=center;fontSize=12;image=img/lib/azure2/general/Mobile.svg;" vertex="1" parent="1">
          <mxGeometry x="210" y="156" width="40" height="67" as="geometry" />
        </mxCell>
        <mxCell id="HiLvJJbdrpGc3KtGlOCQ-31" value="" style="outlineConnect=0;dashed=0;verticalLabelPosition=bottom;verticalAlign=top;align=center;html=1;shape=mxgraph.aws3.camera;fillColor=#5294CF;gradientColor=none;" vertex="1" parent="1">
          <mxGeometry x="201" y="-11" width="79.5" height="79.5" as="geometry" />
        </mxCell>
      </root>
    </mxGraphModel>
  </diagram>
</mxfile>
